<?xml version="1.0" encoding="UTF-8" standalone="no"?>
<svg
   xmlns:dc="http://purl.org/dc/elements/1.1/"
   xmlns:cc="http://creativecommons.org/ns#"
   xmlns:rdf="http://www.w3.org/1999/02/22-rdf-syntax-ns#"
   xmlns:svg="http://www.w3.org/2000/svg"
   xmlns="http://www.w3.org/2000/svg"
   xmlns:sodipodi="http://sodipodi.sourceforge.net/DTD/sodipodi-0.dtd"
   xmlns:inkscape="http://www.inkscape.org/namespaces/inkscape"
   width="160"
   height="22"
   viewBox="0 0 160 22"
   version="1.1"
   id="svg13"
   sodipodi:docname="Logo_1.svg"
   inkscape:version="1.0.1 (3bc2e813f5, 2020-09-07)">
  <metadata
     id="metadata19">
    <rdf:RDF>
      <cc:Work
         rdf:about="">
        <dc:format>image/svg+xml</dc:format>
        <dc:type
           rdf:resource="http://purl.org/dc/dcmitype/StillImage" />
      </cc:Work>
    </rdf:RDF>
  </metadata>
  <defs
     id="defs17" />
  <sodipodi:namedview
     pagecolor="#ffffff"
     bordercolor="#666666"
     borderopacity="1"
     objecttolerance="10"
     gridtolerance="10"
     guidetolerance="10"
     inkscape:pageopacity="0"
     inkscape:pageshadow="2"
     inkscape:window-width="1920"
     inkscape:window-height="1001"
     id="namedview15"
     showgrid="false"
     inkscape:zoom="7.4487831"
     inkscape:cx="139.42805"
     inkscape:cy="11"
     inkscape:window-x="-9"
     inkscape:window-y="-9"
     inkscape:window-maximized="1"
     inkscape:current-layer="Logo_1" />
  <g
     id="Logo_1"
     transform="translate(0 0)">
    <path
       id="Path_6"
       data-name="Path 6"
       d="M8.729,36.5H5.937L0,20.993H3.841L7.507,31.3l3.753-10.311h3.754Z"
       transform="translate(0 -14.936)"
       fill="#424448" />
    <path
       id="Path_2"
       data-name="Path 2"
       d="M68.639,25.99a3.788,3.788,0,0,0-1.571-2.339,4.626,4.626,0,0,0-2.794-.78,3.748,3.748,0,0,0-2.532.866,4.129,4.129,0,0,0-1.571,2.253ZM60,28.849a4.045,4.045,0,0,0,1.4,2.687,4.676,4.676,0,0,0,2.968.953,4.51,4.51,0,0,0,2.182-.52,4.051,4.051,0,0,0,1.571-1.386h3.928a9,9,0,0,1-2.968,3.9,7.682,7.682,0,0,1-4.627,1.387,8.245,8.245,0,0,1-3.23-.606A6.53,6.53,0,0,1,58.6,33.442a9.1,9.1,0,0,1-1.746-2.6,9.437,9.437,0,0,1-.611-3.119,8.925,8.925,0,0,1,.611-3.032,7.015,7.015,0,0,1,1.659-2.513,7.941,7.941,0,0,1,5.761-2.687,8.378,8.378,0,0,1,6.809,3.553A6.093,6.093,0,0,1,72.218,25.3a8.913,8.913,0,0,1,.349,2.772v.779Z"
       transform="translate(-39.892 -13.868)"
       fill="#424448" />
    <path
       id="Path_9"
       data-name="Path 9"
       d="M125.763,36.249v-9.1a3.275,3.275,0,0,1,6.548,0v9.1h3.578V27.238a6.9,6.9,0,0,0-13.792,0v9.011Z"
       transform="translate(-86.602 -14.51)"
       fill="#424448" />
    <path
       id="Path_8"
       data-name="Path 8"
       d="M191.893,0V7.271a8.71,8.71,0,0,0-4.566-1.386,8.058,8.058,0,1,0,8.055,8.057V0ZM187.3,18.449a4.507,4.507,0,1,1,0-9.012,4.506,4.506,0,1,1,0,9.012"
       transform="translate(-127.101 0)"
       fill="#424448" />
    <path
       id="Path_4"
       data-name="Path 4"
       d="M248.339,27.637a4.933,4.933,0,0,0,1.222,3.466,4.779,4.779,0,0,0,6.458-.087,4.891,4.891,0,0,0,1.137-3.466,4.228,4.228,0,0,0-1.222-3.2,4.3,4.3,0,0,0-3.143-1.3,4.355,4.355,0,0,0-3.23,1.3,4.792,4.792,0,0,0-1.222,3.292m-3.754,0A7.22,7.22,0,0,1,245.2,24.6a7.94,7.94,0,0,1,1.745-2.687,7.277,7.277,0,0,1,2.619-1.732,7.885,7.885,0,0,1,3.143-.693,9.136,9.136,0,0,1,3.055.607,8.338,8.338,0,0,1,2.619,1.647,7.3,7.3,0,0,1,1.921,2.685,8.088,8.088,0,0,1,.7,3.119,9.655,9.655,0,0,1-.611,3.293,7.23,7.23,0,0,1-1.748,2.6,6.508,6.508,0,0,1-2.619,1.819,8.367,8.367,0,0,1-3.315.606,7.534,7.534,0,0,1-3.143-.606,9.292,9.292,0,0,1-2.707-1.819,9.725,9.725,0,0,1-1.658-2.687,7.351,7.351,0,0,1-.611-3.119"
       transform="translate(-173.481 -13.868)"
       fill="#424448" />
    <path
       id="Path_5"
       data-name="Path 5"
       d="M317.968,23.922c-3.055.261-3.841,1.561-3.841,4.419v7.972h-3.578v-7.8c0-4.332,2.532-7.971,7.42-7.971Z"
       transform="translate(-220.268 -14.616)"
       fill="#424448" />
    <path
       id="Path_1"
       data-name="Path 1"
       d="M506.616,25.99a3.789,3.789,0,0,0-1.571-2.339,4.626,4.626,0,0,0-2.794-.78,3.748,3.748,0,0,0-2.532.866,4.129,4.129,0,0,0-1.571,2.253Zm-8.643,2.859a4.045,4.045,0,0,0,1.4,2.687,4.676,4.676,0,0,0,2.968.953,4.51,4.51,0,0,0,2.182-.52,4.051,4.051,0,0,0,1.571-1.386h3.928a9,9,0,0,1-2.968,3.9,7.682,7.682,0,0,1-4.627,1.387,8.245,8.245,0,0,1-3.23-.606,6.53,6.53,0,0,1-2.618-1.819,9.1,9.1,0,0,1-1.746-2.6,9.437,9.437,0,0,1-.611-3.119,8.925,8.925,0,0,1,.611-3.032,7.015,7.015,0,0,1,1.659-2.513,7.941,7.941,0,0,1,5.761-2.687,8.378,8.378,0,0,1,6.809,3.553A6.089,6.089,0,0,1,510.2,25.3a8.913,8.913,0,0,1,.349,2.772v.779Z"
       transform="translate(-350.544 -13.868)"
       fill="#36a693"
       style="fill:#ffffff" />
    <path
       id="Path_3"
       data-name="Path 3"
       d="M403.291,24.324l-.167-14.9,3.579-.04.167,14.9Zm1.6-20.814A2.153,2.153,0,0,1,407.1,5.652a2.226,2.226,0,1,1-4.452.049,2.174,2.174,0,0,1,2.245-2.191"
       transform="translate(-285.592 -2.498)"
       fill="#36a693"
       style="fill:#ffffff" />
    <path
       id="Path_7"
       data-name="Path 7"
       d="M440.893,0V7.271a8.71,8.71,0,0,0-4.567-1.386,8.058,8.058,0,1,0,8.055,8.057V0ZM436.3,18.449a4.507,4.507,0,1,1,0-9.012,4.506,4.506,0,1,1,0,9.012"
       transform="translate(-303.714 0)"
       fill="#36a693"
       style="fill:#ffffff" />
    <path
       id="Path_10"
       data-name="Path 10"
       d="M345.081,31.073c0,3.379,3.491,5.025,6.984,5.113,4.625,0,6.721-2.34,6.808-4.679.088-3.639-3.405-4.593-6.548-5.026-2.093-.347-3.143-.519-3.055-1.56,0-1.04,1.66-1.3,2.619-1.3,1.134,0,2.794.347,2.794,1.734h3.578c-.088-3.034-2.619-5.026-6.285-5.113-3.666,0-6.2,1.732-6.373,4.5-.348,4.159,4.628,4.852,6.2,5.112,2.1.26,3.23.693,3.405,1.387.175,1.126-1.049,1.559-3.055,1.559-2.619,0-3.318-1.213-3.493-1.734Z"
       transform="translate(-244.762 -14.402)"
       fill="#36a693"
       style="fill:#ffffff" />
  </g>
</svg>
